HIERARCHY
ROOT Hips
{
	OFFSET -14.64140 90.27770 -84.91600
	CHANNELS 6 Xposition Yposition Zposition Zrotation Xrotation Yrotation
	JOINT Spine
	{
		OFFSET 0.00000 13.20850 -1.60436
		CHANNELS 3 Zrotation Xrotation Yrotation
		JOINT Spine1
		{
			OFFSET 0.00000 8.61716 0.00000
			CHANNELS 3 Zrotation Xrotation Yrotation
			JOINT Spine2
			{
				OFFSET 0.00000 8.61717 0.00000
				CHANNELS 3 Zrotation Xrotation Yrotation
				JOINT Spine3
				{
					OFFSET 0.00000 8.61717 0.00000
					CHANNELS 3 Zrotation Xrotation Yrotation
					JOINT Neck
					{
						OFFSET 0.00000 11.07920 1.10792
						CHANNELS 3 Zrotation Xrotation Yrotation
						JOINT Neck1
						{
							OFFSET 0.00000 7.08032 0.00000
							CHANNELS 3 Zrotation Xrotation Yrotation
							JOINT Head
							{
								OFFSET 0.00000 7.08031 0.00000
								CHANNELS 3 Zrotation Xrotation Yrotation
								End site
								{
									OFFSET 0.00000 0.00000 0.00000
								}
							}
						}
					}
					JOINT RightShoulder
					{
						OFFSET -0.01000 7.91373 5.19711
						CHANNELS 3 Zrotation Xrotation Yrotation
						JOINT RightArm
						{
							OFFSET -18.41580 0.00000 0.00000
							CHANNELS 3 Zrotation Xrotation Yrotation
							JOINT RightForeArm
							{
								OFFSET -29.11090 0.00000 0.00000
								CHANNELS 3 Zrotation Xrotation Yrotation
								JOINT RightHand
								{
									OFFSET -24.65040 0.00000 0.00000
									CHANNELS 3 Zrotation Xrotation Yrotation
									JOINT RightHandThumb1
									{
										OFFSET -5.35114 -0.85590 3.97906
										CHANNELS 3 Zrotation Xrotation Yrotation
										JOINT RightHandThumb2
										{
											OFFSET -4.52789 0.00000 0.00000
											CHANNELS 3 Zrotation Xrotation Yrotation
											JOINT RightHandThumb3
											{
												OFFSET -2.46976 0.00000 0.00000
												CHANNELS 3 Zrotation Xrotation Yrotation
												End site
												{
													OFFSET 0.00000 0.00000 0.00000
												}
											}
										}
									}
									JOINT RightHandIndex1
									{
										OFFSET -14.26970 0.00000 2.88139
										CHANNELS 3 Zrotation Xrotation Yrotation
										JOINT RightHandIndex2
										{
											OFFSET -5.48836 0.00000 0.00000
											CHANNELS 3 Zrotation Xrotation Yrotation
											JOINT RightHandIndex3
											{
												OFFSET -3.01859 0.00000 0.00000
												CHANNELS 3 Zrotation Xrotation Yrotation
												End site
												{
													OFFSET 0.00000 0.00000 0.00000
												}
											}
										}
									}
									JOINT RightHandMiddle1
									{
										OFFSET -14.26970 0.00000 -0.09147
										CHANNELS 3 Zrotation Xrotation Yrotation
										JOINT RightHandMiddle2
										{
											OFFSET -6.17441 0.00000 0.00000
											CHANNELS 3 Zrotation Xrotation Yrotation
											JOINT RightHandMiddle3
											{
												OFFSET -3.56743 0.00000 0.00000
												CHANNELS 3 Zrotation Xrotation Yrotation
												End site
												{
													OFFSET 0.00000 0.00000 0.00000
												}
											}
										}
									}
									JOINT RightHandRing1
									{
										OFFSET -12.69180 0.00000 -3.06433
										CHANNELS 3 Zrotation Xrotation Yrotation
										JOINT RightHandRing2
										{
											OFFSET -5.62556 0.00000 0.00000
											CHANNELS 3 Zrotation Xrotation Yrotation
											JOINT RightHandRing3
											{
												OFFSET -3.56744 0.00000 0.00000
												CHANNELS 3 Zrotation Xrotation Yrotation
												End site
												{
													OFFSET 0.00000 0.00000 0.00000
												}
											}
										}
									}
									JOINT RightHandPinky1
									{
										OFFSET -11.11390 0.00000 -6.03719
										CHANNELS 3 Zrotation Xrotation Yrotation
										JOINT RightHandPinky2
										{
											OFFSET -4.52789 0.00000 0.00000
											CHANNELS 3 Zrotation Xrotation Yrotation
											JOINT RightHandPinky3
											{
												OFFSET -2.46976 0.00000 0.00000
												CHANNELS 3 Zrotation Xrotation Yrotation
												End site
												{
													OFFSET 0.00000 0.00000 0.00000
												}
											}
										}
									}
								}
							}
						}
					}
					JOINT LeftShoulder
					{
						OFFSET 0.01000 7.91373 5.19711
						CHANNELS 3 Zrotation Xrotation Yrotation
						JOINT LeftArm
						{
							OFFSET 18.41580 0.00000 0.00000
							CHANNELS 3 Zrotation Xrotation Yrotation
							JOINT LeftForeArm
							{
								OFFSET 29.11090 0.00000 0.00000
								CHANNELS 3 Zrotation Xrotation Yrotation
								JOINT LeftHand
								{
									OFFSET 24.65040 0.00000 0.00000
									CHANNELS 3 Zrotation Xrotation Yrotation
									JOINT LeftHandThumb1
									{
										OFFSET 5.35114 -0.85590 3.97906
										CHANNELS 3 Zrotation Xrotation Yrotation
										JOINT LeftHandThumb2
										{
											OFFSET 4.52789 0.00000 0.00000
											CHANNELS 3 Zrotation Xrotation Yrotation
											JOINT LeftHandThumb3
											{
												OFFSET 2.46977 0.00000 0.00000
												CHANNELS 3 Zrotation Xrotation Yrotation
												End site
												{
													OFFSET 0.00000 0.00000 0.00000
												}
											}
										}
									}
									JOINT LeftHandIndex1
									{
										OFFSET 14.26970 0.00000 2.88139
										CHANNELS 3 Zrotation Xrotation Yrotation
										JOINT LeftHandIndex2
										{
											OFFSET 5.48836 0.00000 0.00000
											CHANNELS 3 Zrotation Xrotation Yrotation
											JOINT LeftHandIndex3
											{
												OFFSET 3.01859 0.00000 0.00000
												CHANNELS 3 Zrotation Xrotation Yrotation
												End site
												{
													OFFSET 0.00000 0.00000 0.00000
												}
											}
										}
									}
									JOINT LeftHandMiddle1
									{
										OFFSET 14.26970 0.00000 -0.09147
										CHANNELS 3 Zrotation Xrotation Yrotation
										JOINT LeftHandMiddle2
										{
											OFFSET 6.17440 0.00000 0.00000
											CHANNELS 3 Zrotation Xrotation Yrotation
											JOINT LeftHandMiddle3
											{
												OFFSET 3.56744 0.00000 0.00000
												CHANNELS 3 Zrotation Xrotation Yrotation
												End site
												{
													OFFSET 0.00000 0.00000 0.00000
												}
											}
										}
									}
									JOINT LeftHandRing1
									{
										OFFSET 12.69180 0.00000 -3.06433
										CHANNELS 3 Zrotation Xrotation Yrotation
										JOINT LeftHandRing2
										{
											OFFSET 5.62556 0.00000 0.00000
											CHANNELS 3 Zrotation Xrotation Yrotation
											JOINT LeftHandRing3
											{
												OFFSET 3.56744 0.00000 0.00000
												CHANNELS 3 Zrotation Xrotation Yrotation
												End site
												{
													OFFSET 0.00000 0.00000 0.00000
												}
											}
										}
									}
									JOINT LeftHandPinky1
									{
										OFFSET 11.11390 0.00000 -6.03719
										CHANNELS 3 Zrotation Xrotation Yrotation
										JOINT LeftHandPinky2
										{
											OFFSET 4.52789 0.00000 0.00000
											CHANNELS 3 Zrotation Xrotation Yrotation
											JOINT LeftHandPinky3
											{
												OFFSET 2.46976 0.00000 0.00000
												CHANNELS 3 Zrotation Xrotation Yrotation
												End site
												{
													OFFSET 0.00000 0.00000 0.00000
												}
											}
										}
									}
								}
							}
						}
					}
					JOINT pCube4
					{
						OFFSET 0.00000 10.91090 1.10792
						CHANNELS 3 Zrotation Xrotation Yrotation
						End site
						{
							OFFSET 0.00000 0.00000 0.00000
						}
					}
				}
			}
		}
	}
	JOINT RightUpLeg
	{
		OFFSET -9.98441 0.00000 0.00000
		CHANNELS 3 Zrotation Xrotation Yrotation
		JOINT RightLeg
		{
			OFFSET 0.00000 -42.11790 0.00000
			CHANNELS 3 Zrotation Xrotation Yrotation
			JOINT RightFoot
			{
				OFFSET 0.00000 -45.00020 -0.00001
				CHANNELS 3 Zrotation Xrotation Yrotation
				JOINT RightForeFoot
				{
					OFFSET 0.00000 -3.74820 0.00000
					CHANNELS 3 Zrotation Xrotation Yrotation
					JOINT RightToeBase
					{
						OFFSET 0.00000 0.06325 14.43120
						CHANNELS 3 Zrotation Xrotation Yrotation
						End site
						{
							OFFSET 0.00000 0.00000 0.00000
						}
					}
				}
			}
		}
	}
	JOINT LeftUpLeg
	{
		OFFSET 9.98441 0.00000 0.00000
		CHANNELS 3 Zrotation Xrotation Yrotation
		JOINT LeftLeg
		{
			OFFSET 0.00000 -42.11800 0.00000
			CHANNELS 3 Zrotation Xrotation Yrotation
			JOINT LeftFoot
			{
				OFFSET 0.00000 -45.00070 0.00000
				CHANNELS 3 Zrotation Xrotation Yrotation
				JOINT LeftForeFoot
				{
					OFFSET 0.00000 -3.74824 0.00000
					CHANNELS 3 Zrotation Xrotation Yrotation
					JOINT LeftToeBase
					{
						OFFSET 0.00000 0.06325 14.43110
						CHANNELS 3 Zrotation Xrotation Yrotation
						End site
						{
							OFFSET 0.00000 0.00000 0.00000
						}
					}
				}
			}
		}
	}
}
MOTION
Frames: 4
Frame Time: 0.050000
0.04248181846787644 0.01258884439968783 -0.0021789776066729618 -0.02777734405169522 -0.03723591347182813 -0.01404471306077777 -3.16138475906525 2.0858686637681174 -0.6729724316839677 -1.0267198876668209 3.8097420238217015 0.39382349793767857 -0.9352880008036044 -1.796707111950921 -2.232793622175806 -0.9039074855894035 0.5704822226485957 -0.9551987635784709 -2.2647171490537716 13.62178300954106 5.4111344477069565 -0.5945740791080503 -0.8080247289852447 11.528274594269 -2.057998409519367 -16.65304871038777 1.0336182147408628 -3.8624679627929543 1.5921985535218766 -13.294998008377519 73.03634396363105 20.22260376480343 10.29996906526284 11.596853949089027 5.651439058203852 70.66343662064332 18.14339946972954 -0.39399561936278416 -3.742573601302056 4.557179922587337 -0.1510297719423902 -1.5860583964452684 -0.04386470233916518 -0.03289520979117651 -56.26831738380304 -0.047454202268517175 -0.03892078232092878 -56.26885711768159 -38.73952569106434 -0.04010942989853989 -0.006789946295714067 0.003282000924033513 -0.006757719421979717 0.003801472355431107 0.018531499849969532 -0.036812429975250735 -0.04467001059629424 -36.70027594921889 -0.007563628050478423 0.01565005108505453 -0.022854634784774397 -0.02949436012985314 0.0038589705377855476 0.00508053173325406 -0.011088008488725834 0.036020003976299377 -19.7761193626976 -0.04963432004167903 -0.02495327885747185 -0.03675726745551838 0.03125408308303687 -0.04217680999523135 0.01744721662490737 -0.004810759124870847 0.020207841817248575 24.015571532156514 -0.04740909992618986 -0.04658236280288396 28.841388272417017 0.006532881229600543 0.01790278577804685 28.829081022781235 0.00781643169507482 0.004859816999075292 10.282287066357163 2.172560044241678 12.403803884674943 -70.60015160619726 8.462086803777142 -28.721969555191134 -65.37603198272424 9.659911510893695 -92.09260926695387 -7.355809536107093 2.366016369034788 -2.0483490072791675 -0.4822273883892982 0.10810347802304829 -8.17119013725903 0.0030762545666686105 0.016021839263909737 44.54916965378071 -0.04024084025950616 -0.04194727548486783 44.5749425216525 12.434905755191458 -0.0124189244886134 0.027082813124913663 0.037617891331366296 0.013937309266091777 0.028707241937923848 0.013501847162225399 0.022158705699681792 0.03106504140905716 11.056907749900622 0.026377484756645628 -0.01706341166210617 -0.00963984785205452 -0.043242226605591086 0.03212494627976651 -0.02683602823702524 -0.03798209164218099 0.002469060086371464 4.734179607894099 -0.011268481879242863 -0.019651235721941072 0.009191557843676834 0.045975287647778425 -0.00656322423457398 -0.023140541170969555 -0.0005727766385301539 -0.04082840665676658 -5.563616017748859 -0.035987464796007715 -0.017923429913226596 -6.684445997685783 0.010639294457020323 0.030701506340275294 -6.712945126286044 0.017588728604168533 0.021819231139859653 -0.021319660799140112 -0.04080371544284609 -0.03853716708839141 8.076683242601504 3.469669752738183 -19.177221637854924 0.00666599952787138 10.426936402384285 0.045661483758798624 -5.607821411374789 -15.65202370114207 3.192128411714955 -0.018430498611972705 0.04815852183949075 -0.01717632970082832 -0.033981833426440525 4.654065863266375 -0.041390170881545625 12.422486002408931 -8.241392831960699 6.8677592790805315 -0.04862783026402926 46.37412330598411 -0.002152456193517535 -4.324723747075674 -14.73387373358816 -3.8255598788443916 0.006171301146599428 -0.03959090076366546 0.024950195791483644 0.017944341647864914 -10.708182151193617 0.030311336166953487 
0.038317354710241495 -0.03492401937592209 -0.03041080651431844 -0.03919747521955655 0.013191131177428629 0.008514614742839977 -3.1196703082857877 2.110595684569428 -0.6886524902412723 -1.0049760179315221 3.7808768588923067 0.32270429210468765 -1.0303391307272383 -1.7983504643257664 -2.090106432629337 -0.7802416970799241 0.5315451924710107 -0.9479869598111977 -2.1913606632981044 13.691749055436146 4.941078039933126 -0.5851786725992308 -0.8230759449383984 10.399471491304226 -1.9196096325879364 -16.57081811873959 0.9151640967537049 -4.0950916960648085 1.6776272075673302 -13.23146014842414 73.11475836506459 18.455693646608488 11.37072093292527 12.355002752354352 6.046432401039127 71.89686608027468 17.209469178449623 -0.32696473111268953 -3.3798454442539403 4.499438478589115 -0.12850823816837936 -1.637788491993191 0.023480191886806286 0.014749295427290936 -56.254526851727235 0.013630394176808064 -0.001638084813271032 -56.281029113574725 -38.81472648658656 -0.0011316650327969446 -0.022722278242458316 0.006062858595834251 0.04683132433349812 -0.04522234887782087 0.030888473832095614 0.03398380111330315 -0.04791006053719818 -36.689863170287715 -0.02571799248436349 -0.0032535529047673767 -0.001740668656307176 0.0372268445682861 0.028053506473971573 0.007705197845586103 -0.013069074098163646 0.04231454415497057 -19.774236864817333 0.02293615661040846 -0.012788578134030115 0.004751333698807467 -0.028016103410359018 -0.028346132030720613 0.037255894759487776 0.0408833089787345 -0.020148594811021343 24.018234457639256 0.03894150124639846 0.004921835882811144 28.831748057380715 -0.022522671310609647 0.03674546510245647 28.863284898817913 0.013843742627291543 -0.02809929582396208 10.069058853791825 2.1328399132731746 12.43250154035324 -70.52565501506199 8.174536133480213 -28.35667608653529 -64.10841034706272 10.232437658563066 -92.24210024434582 -6.92802298028151 2.7523906405647987 -2.388591036150638 -0.4992272739065962 0.041595460722457914 -8.08646210998115 -0.012640316923584619 -0.027833802733145275 44.591209982168024 -0.027468813202033655 0.027652043254037646 44.52819270424459 12.499421016355724 0.006248753596815172 0.0019728898461256576 0.03588668678128814 0.031037044473540117 0.03251957342619545 -0.012995015432175199 0.029709570856422292 -0.002143379907002346 11.125753761528504 -0.006587839727823943 -0.04942827485984467 -0.03031898120448143 -0.021728562460106685 0.045225548778130224 -0.037016703891860035 0.016803490266989483 0.03531486128059667 4.772221593570485 -0.02370464719032115 0.005409974514451178 -0.04164014283405709 -0.01553496094785541 -0.0211765570449698 0.02755932046997538 -0.03452902789511813 -0.013622320724319289 -5.626472736878819 0.01688262740043359 -0.04129227746202808 -6.702951142344026 -0.0005111544366479538 0.04513067757794831 -6.723035876373905 -0.026566253983814438 0.009485319708842027 -0.009594858559815487 -0.04429839342231679 0.03306562969082401 8.015588181062908 3.497740653973432 -19.194799628792772 -0.01179763887014171 10.383446908129777 -0.0314293208217787 -5.645099228408196 -15.672733216819346 3.200661892924259 -0.027236991563939314 -0.023701475657730772 -0.042205946500995614 0.007023775459298324 4.670244056432011 -0.03612157797613881 12.44075502058109 -8.26330459179721 6.888408477121631 -0.012005172664025773 46.39601983008971 0.049572423850130616 -4.307251286742075 -14.788875461124764 -3.818178267503717 -0.015539672549330351 -0.008726456718288486 0.029042332309088554 0.0020154205629982257 -10.711357279892123 0.00432246105395204 
0.04763012183043556 0.03860199689495286 -0.012811561293095172 0.00035336597059630517 0.014340662884199998 0.0038204398183538492 -3.0341515321674244 2.1691666744082254 -0.7108339246073246 -1.03454996690231 3.8283698471906966 0.3471337599457486 -1.0334034401064707 -1.7439008294472689 -1.9497707604523957 -0.753074599744816 0.5095355354730859 -0.971246171973793 -1.9483499577361851 13.69973964839766 4.484770085621757 -0.5608052574010176 -0.7296159194926307 9.162758880934382 -1.7846901515968476 -16.522963784050972 0.8338747833823138 -4.358290383400699 1.7420856109766032 -13.265244050612743 73.01031840125648 16.88213305433671 12.154852645281212 12.848577267794958 6.0537999184906885 72.14173690562255 16.297232421985647 -0.28619567674437324 -3.0298330642389923 4.510084683219219 -0.08530038928375427 -1.616490389529566 0.032253670689370746 0.03815747877478272 -56.20159208966879 0.02270897409497785 -0.00471070097932788 -56.22549080722884 -38.814980843013515 0.007578801323119549 0.008263385512386423 0.024448777507829457 0.02105163801901177 -0.01680187911957563 0.041855877998521196 -0.02901880728098031 0.01902394446501667 -36.70130561081831 0.031177639916302596 -0.023096404984437047 0.040462523997667824 -0.037340818374240595 -0.01958587016878349 0.04022881466536737 0.008454741163045782 0.02342351487561732 -19.784909925389442 0.01789443739570167 0.004669229041150673 0.033263942299068615 0.04246912431050131 0.02517666447609331 -0.004743830035362679 0.01638196111021207 0.04129777636998556 24.0688846535381 0.026994085434129688 -0.04366568612406549 28.906013637733583 -0.020095281677963064 -0.00031299404739532267 28.829508856832703 -0.00991344240986826 -0.002096750142611867 9.869129862584076 2.06151594968732 12.397667640385263 -70.11807530143669 8.794676609163458 -27.644938332033032 -60.85075044729714 10.495278207647202 -91.1202569018464 -6.6075641179720686 2.9568303784048178 -2.4983581566735014 -0.44521129472996956 0.07670568751607876 -8.138895582591632 -0.049227316624741925 0.018064593962004317 44.54258108835654 0.02352782786401083 0.03890633221850534 44.59387086373393 12.484346140271029 0.04772964439515698 -0.01607582364513733 0.037619389140677716 0.026333330500227053 0.03162876733264696 -0.012776053050737715 -0.022322555211233167 -0.02822104652402887 11.089506084894774 -0.035380461033795226 0.03583462966778913 0.028978480638263016 -0.013844203351917548 0.006563293644948465 0.02634145223817182 0.020479939073691274 0.004388373335740389 4.73913629024045 0.006531903512865904 0.02807455625431654 0.038343856680056666 -0.036448112330702546 0.018478547486266563 -0.005276098183593768 -0.017902560075231656 -0.024375424549673286 -5.629004622302462 -0.02142078944876689 0.03051576251119872 -6.723117704672546 -0.022971361289616684 0.002821522351027886 -6.725484606101538 0.03435156888591885 0.001955242377744625 -0.016513081274726515 0.017111143752820093 0.026013896817753842 8.003891723845742 3.512984943004528 -19.238458069520796 0.01315787286065489 10.396874395197516 0.04557032332232565 -5.574280048599158 -15.653957929308172 3.2001355140639087 -0.010286440214143206 -0.02836900973974323 -0.03469069513934047 -0.007979132814263271 4.654303349739977 0.008083361107381684 12.48336255176125 -8.249594361037525 6.844937790442222 -0.012478481970091895 46.33186484779155 0.0030527824452958353 -4.336072551719429 -14.70160125905366 -3.870848470851971 -0.020122293277711874 0.0112588007908969 0.02477649113312713 0.017301259675766664 -10.758898092446982 -0.0390901242559045 
0.021007320485539258 0.037890343080938 0.01001223852704506 -0.021002173723929433 0.02172447908426075 0.022518955777605484 -3.0183293646926472 2.1636100328060373 -0.6391289106791919 -1.1086989640784184 3.836104535892364 0.37992847753260495 -1.0034064062201098 -1.7730921730666078 -1.9377476587167004 -0.658355017954957 0.5813603456276424 -0.9176390900818231 -1.9005793447042598 13.70898486592242 4.15487747450945 -0.5384754984978302 -0.6868462528845413 8.184360118412544 -1.6697866609125254 -16.424235153426686 0.777758590135309 -4.560847582216503 1.7334200214887763 -13.396706258736698 72.96673553509606 16.502739516980093 12.100897950181224 12.005346052779007 5.770167163399104 69.81022659802143 15.565101076636209 -0.25274838670714317 -2.607438353873756 4.490686391060771 -0.11024105415802989 -1.613103922052345 -0.014579490043594517 -0.005120882941716849 -56.261468651454855 0.045469800483847474 0.023604199104602985 -56.205392222412925 -38.80412767498651 -0.04441135654800853 -0.02790001867385209 -0.02373003461998438 -0.030335573546548648 0.005169493766702024 -0.03436092315023423 0.0051810250650677755 0.04015369399752478 -36.6722171052799 0.040710549721176464 -0.027686395079148246 -0.028059077464039763 -0.005176579955375785 -0.0179000751121328 0.027914231217699936 -0.03755525378514202 -0.024130685809969275 -19.79788448960236 0.006753577395745708 -0.0035795604442509735 0.023337874271445014 -0.0461385487089652 -0.01030919602687263 0.0328887981129064 -0.03122850151419529 -0.028059450251096657 24.06581208249887 -0.01495077890948506 -0.004619268104582626 28.83847680893841 0.02614324682759155 0.015305020483610366 28.839474414035916 0.015052065562244298 -0.002171662166397886 9.668763508006146 2.049425555658565 12.469875789251002 -69.90009601957712 9.779408024618236 -26.858473743080168 -56.621152178210615 10.99710024925405 -88.41520260594473 -6.266149566536259 3.0333363823708317 -2.5298439664953216 -0.4892723871228393 0.030989512126274703 -8.151662420563992 -0.004943122478044603 0.01619369582941053 44.551377896332774 0.016505061889615417 -0.03394641808952871 44.559461120541876 12.471128888591752 0.01221478542733424 -0.04883466245673963 0.0058478794185522695 -0.0209971887593818 -0.0440721219981797 0.027796191400339978 -0.027596968657387737 -0.0043014328032283606 11.139459167430418 -0.03671162948083564 0.01931171002489868 -0.011004348202603003 0.04048335271144274 -0.027313013701297788 -0.010420297801703848 0.015630879678934412 -0.014032491412173095 4.736295204882425 -0.010440520607225584 0.040467751448124034 0.015790369359751068 0.02741396329919641 0.03249321753180734 -0.009389692888748916 -0.021931531861073324 0.00043391657917850817 -5.573125058858225 -0.005427477495518577 0.010684613040325823 -6.686342162023052 -0.01762106857052203 -0.022253716711795362 -6.72267132333781 0.026801763832781936 -0.03087304129521961 0.03239537260001001 -0.03423604112824862 0.01075377064733698 8.013759873605004 3.5009118041299687 -19.177857902167705 0.007499851149546947 10.385766300977023 0.05611985391870872 -5.582251891050422 -15.664638440065918 3.211451669019427 -0.04327145974608603 0.022775267174260632 0.01994392403801535 -0.007244233116446079 4.676142283042011 0.03441776240923115 12.48116219000202 -8.255254683908614 6.903994522290315 0.007369159038997153 46.38392606783193 0.0026522656614014002 -4.288853194597975 -14.763165813363525 -3.855877413189483 -0.008725154454261055 0.04589519542234132 -0.049603795590919604 0.017992800632054166 -10.78545082314769 -0.008242843280932789 
